G04 #@! TF.FileFunction,Soldermask,Bot*
%FSLAX46Y46*%
G04 Gerber Fmt 4.6, Leading zero omitted, Abs format (unit mm)*
G04 Created by KiCad (PCBNEW 4.0.4-stable) date 02/19/17 16:13:15*
%MOMM*%
%LPD*%
G01*
G04 APERTURE LIST*
%ADD10C,0.100000*%
%ADD11C,3.321000*%
%ADD12C,2.178000*%
%ADD13C,2.686000*%
%ADD14C,4.464000*%
%ADD15C,1.900000*%
%ADD16R,6.400000X7.566666*%
%ADD17R,6.400000X4.700000*%
%ADD18C,1.300000*%
G04 APERTURE END LIST*
D10*
D11*
X98425000Y-112153700D03*
X98425000Y-91046300D03*
D12*
X140970000Y-110490000D03*
X151130000Y-110490000D03*
D13*
X142240000Y-113030000D03*
X148590000Y-115570000D03*
D14*
X146050000Y-110490000D03*
D12*
X160020000Y-110490000D03*
X170180000Y-110490000D03*
D13*
X161290000Y-113030000D03*
X167640000Y-115570000D03*
D14*
X165100000Y-110490000D03*
D12*
X121920000Y-110490000D03*
X132080000Y-110490000D03*
D13*
X123190000Y-113030000D03*
X129540000Y-115570000D03*
D14*
X127000000Y-110490000D03*
D15*
X160020000Y-78740000D03*
X160020000Y-81280000D03*
X162560000Y-78740000D03*
X162560000Y-81280000D03*
X165100000Y-78740000D03*
X165100000Y-81280000D03*
X167640000Y-78740000D03*
X167640000Y-81280000D03*
X170180000Y-78740000D03*
X170180000Y-81280000D03*
D16*
X186690000Y-122083333D03*
D10*
G36*
X186890000Y-118700000D02*
X183490000Y-123000000D01*
X183490000Y-114000000D01*
X186890000Y-118300000D01*
X186890000Y-118700000D01*
X186890000Y-118700000D01*
G37*
G36*
X189890000Y-123000000D02*
X186490000Y-118700000D01*
X186490000Y-118300000D01*
X189890000Y-114000000D01*
X189890000Y-123000000D01*
X189890000Y-123000000D01*
G37*
D17*
X186690000Y-111050000D03*
D10*
G36*
X186890000Y-109100000D02*
X183490000Y-113400000D01*
X183490000Y-104400000D01*
X186890000Y-108700000D01*
X186890000Y-109100000D01*
X186890000Y-109100000D01*
G37*
G36*
X189890000Y-113400000D02*
X186490000Y-109100000D01*
X186490000Y-108700000D01*
X189890000Y-104400000D01*
X189890000Y-113400000D01*
X189890000Y-113400000D01*
G37*
G36*
X186890000Y-117700000D02*
X186490000Y-117700000D01*
X183490000Y-113000000D01*
X189890000Y-113000000D01*
X186890000Y-117700000D01*
X186890000Y-117700000D01*
G37*
D17*
X186690000Y-101450000D03*
D10*
G36*
X186890000Y-99500000D02*
X183490000Y-103800000D01*
X183490000Y-94800000D01*
X186890000Y-99100000D01*
X186890000Y-99500000D01*
X186890000Y-99500000D01*
G37*
G36*
X189890000Y-103800000D02*
X186490000Y-99500000D01*
X186490000Y-99100000D01*
X189890000Y-94800000D01*
X189890000Y-103800000D01*
X189890000Y-103800000D01*
G37*
G36*
X186890000Y-108100000D02*
X186490000Y-108100000D01*
X183490000Y-103400000D01*
X189890000Y-103400000D01*
X186890000Y-108100000D01*
X186890000Y-108100000D01*
G37*
D17*
X186690000Y-91850000D03*
D10*
G36*
X186890000Y-89900000D02*
X183490000Y-94200000D01*
X183490000Y-85200000D01*
X186890000Y-89500000D01*
X186890000Y-89900000D01*
X186890000Y-89900000D01*
G37*
G36*
X189890000Y-94200000D02*
X186490000Y-89900000D01*
X186490000Y-89500000D01*
X189890000Y-85200000D01*
X189890000Y-94200000D01*
X189890000Y-94200000D01*
G37*
G36*
X186890000Y-98500000D02*
X186490000Y-98500000D01*
X183490000Y-93800000D01*
X189890000Y-93800000D01*
X186890000Y-98500000D01*
X186890000Y-98500000D01*
G37*
D16*
X186690000Y-80816667D03*
D10*
G36*
X186890000Y-88900000D02*
X186490000Y-88900000D01*
X183490000Y-84200000D01*
X189890000Y-84200000D01*
X186890000Y-88900000D01*
X186890000Y-88900000D01*
G37*
D16*
X180690000Y-122083333D03*
D10*
G36*
X180890000Y-118700000D02*
X177490000Y-123000000D01*
X177490000Y-114000000D01*
X180890000Y-118300000D01*
X180890000Y-118700000D01*
X180890000Y-118700000D01*
G37*
G36*
X183890000Y-123000000D02*
X180490000Y-118700000D01*
X180490000Y-118300000D01*
X183890000Y-114000000D01*
X183890000Y-123000000D01*
X183890000Y-123000000D01*
G37*
D17*
X180690000Y-111050000D03*
D10*
G36*
X180890000Y-109100000D02*
X177490000Y-113400000D01*
X177490000Y-104400000D01*
X180890000Y-108700000D01*
X180890000Y-109100000D01*
X180890000Y-109100000D01*
G37*
G36*
X183890000Y-113400000D02*
X180490000Y-109100000D01*
X180490000Y-108700000D01*
X183890000Y-104400000D01*
X183890000Y-113400000D01*
X183890000Y-113400000D01*
G37*
G36*
X180890000Y-117700000D02*
X180490000Y-117700000D01*
X177490000Y-113000000D01*
X183890000Y-113000000D01*
X180890000Y-117700000D01*
X180890000Y-117700000D01*
G37*
D17*
X180690000Y-101450000D03*
D10*
G36*
X180890000Y-99500000D02*
X177490000Y-103800000D01*
X177490000Y-94800000D01*
X180890000Y-99100000D01*
X180890000Y-99500000D01*
X180890000Y-99500000D01*
G37*
G36*
X183890000Y-103800000D02*
X180490000Y-99500000D01*
X180490000Y-99100000D01*
X183890000Y-94800000D01*
X183890000Y-103800000D01*
X183890000Y-103800000D01*
G37*
G36*
X180890000Y-108100000D02*
X180490000Y-108100000D01*
X177490000Y-103400000D01*
X183890000Y-103400000D01*
X180890000Y-108100000D01*
X180890000Y-108100000D01*
G37*
D17*
X180690000Y-91850000D03*
D10*
G36*
X180890000Y-89900000D02*
X177490000Y-94200000D01*
X177490000Y-85200000D01*
X180890000Y-89500000D01*
X180890000Y-89900000D01*
X180890000Y-89900000D01*
G37*
G36*
X183890000Y-94200000D02*
X180490000Y-89900000D01*
X180490000Y-89500000D01*
X183890000Y-85200000D01*
X183890000Y-94200000D01*
X183890000Y-94200000D01*
G37*
G36*
X180890000Y-98500000D02*
X180490000Y-98500000D01*
X177490000Y-93800000D01*
X183890000Y-93800000D01*
X180890000Y-98500000D01*
X180890000Y-98500000D01*
G37*
D16*
X180690000Y-80816667D03*
D10*
G36*
X180890000Y-88900000D02*
X180490000Y-88900000D01*
X177490000Y-84200000D01*
X183890000Y-84200000D01*
X180890000Y-88900000D01*
X180890000Y-88900000D01*
G37*
D12*
X93980000Y-85090000D03*
X83820000Y-85090000D03*
D13*
X92710000Y-82550000D03*
X86360000Y-80010000D03*
D14*
X88900000Y-85090000D03*
D12*
X83820000Y-118110000D03*
X93980000Y-118110000D03*
D13*
X85090000Y-120650000D03*
X91440000Y-123190000D03*
D14*
X88900000Y-118110000D03*
D12*
X102870000Y-118110000D03*
X113030000Y-118110000D03*
D13*
X104140000Y-120650000D03*
X110490000Y-123190000D03*
D14*
X107950000Y-118110000D03*
D12*
X140970000Y-91440000D03*
X151130000Y-91440000D03*
D13*
X142240000Y-93980000D03*
X148590000Y-96520000D03*
D14*
X146050000Y-91440000D03*
D12*
X113030000Y-85090000D03*
X102870000Y-85090000D03*
D13*
X111760000Y-82550000D03*
X105410000Y-80010000D03*
D14*
X107950000Y-85090000D03*
D18*
X114300000Y-105635000D03*
X114300000Y-98835000D03*
M02*
