M48
;DRILL file {KiCad 4.0.4-stable} date 02/19/17 16:12:38
;FORMAT={-:-/ absolute / inch / decimal}
FMAT,2
INCH,TZ
T1C0.016
T2C0.035
T3C0.039
T4C0.060
T5C0.070
T6C0.078
T7C0.160
%
G90
G05
M72
T1
X3.8092Y-4.9
X3.9069Y-4.9
X4.025Y-3.275
X4.35Y-3.775
X4.4Y-3.775
X4.55Y-4.425
X4.64Y-3.2
X4.7Y-3.25
X4.85Y-4.6
X4.875Y-3.275
X4.91Y-4.035
X4.91Y-4.25
X4.955Y-4.035
X5.005Y-4.035
X5.075Y-3.485
X5.085Y-3.535
X5.095Y-3.675
X5.1Y-3.445
X5.135Y-3.725
X5.165Y-3.655
X5.2Y-4.82
X5.215Y-3.865
X5.3Y-3.885
X5.325Y-3.92
X5.35Y-3.95
X5.41Y-3.95
X5.43Y-3.35
X5.45Y-4.175
X5.465Y-3.1
X5.465Y-3.9505
X5.55Y-3.495
X5.675Y-3.265
X5.7Y-4.82
X5.975Y-3.25
X6.05Y-4.175
X6.15Y-3.5
X6.275Y-3.6155
X6.3625Y-3.5425
X6.4Y-3.695
X6.4257Y-3.5204
X6.48Y-3.5197
X6.545Y-3.55
X6.65Y-3.875
X6.65Y-3.925
X6.7Y-3.5
X6.7Y-3.55
X6.75Y-3.78
T2
X4.5Y-3.8911
X4.5Y-4.1589
T3
X6.3Y-3.1
X6.3Y-3.2
X6.4Y-3.1
X6.4Y-3.2
X6.5Y-3.1
X6.5Y-3.2
X6.6Y-3.1
X6.6Y-3.2
X6.7Y-3.1
X6.7Y-3.2
T4
X3.35Y-4.75
X3.4Y-3.15
X3.6Y-4.85
X3.65Y-3.25
X4.1Y-4.75
X4.15Y-3.15
X4.35Y-4.85
X4.4Y-3.25
X4.85Y-4.45
X5.1Y-4.55
X5.6Y-3.7
X5.6Y-4.45
X5.85Y-3.8
X5.85Y-4.55
X6.35Y-4.45
X6.6Y-4.55
T5
X3.3Y-3.35
X3.3Y-4.65
X3.7Y-3.35
X3.7Y-4.65
X4.05Y-3.35
X4.05Y-4.65
X4.45Y-3.35
X4.45Y-4.65
X4.8Y-4.35
X5.2Y-4.35
X5.55Y-3.6
X5.55Y-4.35
X5.95Y-3.6
X5.95Y-4.35
X6.3Y-4.35
X6.7Y-4.35
T6
X3.875Y-3.5845
X3.875Y-4.4155
T7
X3.5Y-3.35
X3.5Y-4.65
X4.25Y-3.35
X4.25Y-4.65
X5.Y-4.35
X5.75Y-3.6
X5.75Y-4.35
X6.5Y-4.35
T0
M30
