solid OpenSCAD_Model
  facet normal -0 0 1
    outer loop
      vertex 0 12.9 2
      vertex 15 0 2
      vertex 15 12.9 2
    endloop
  endfacet
  facet normal 0 0 1
    outer loop
      vertex 15 0 2
      vertex 0 12.9 2
      vertex 0 0 2
    endloop
  endfacet
  facet normal 0 0 -1
    outer loop
      vertex 0 0 0
      vertex 15 12.9 0
      vertex 15 0 0
    endloop
  endfacet
  facet normal -0 0 -1
    outer loop
      vertex 15 12.9 0
      vertex 0 0 0
      vertex 0 12.9 0
    endloop
  endfacet
  facet normal 0 -1 0
    outer loop
      vertex 0 0 0
      vertex 15 0 2
      vertex 0 0 2
    endloop
  endfacet
  facet normal 0 -1 -0
    outer loop
      vertex 15 0 2
      vertex 0 0 0
      vertex 15 0 0
    endloop
  endfacet
  facet normal 1 -0 0
    outer loop
      vertex 15 0 2
      vertex 15 12.9 0
      vertex 15 12.9 2
    endloop
  endfacet
  facet normal 1 0 0
    outer loop
      vertex 15 12.9 0
      vertex 15 0 2
      vertex 15 0 0
    endloop
  endfacet
  facet normal 0 1 -0
    outer loop
      vertex 15 12.9 0
      vertex 0 12.9 2
      vertex 15 12.9 2
    endloop
  endfacet
  facet normal 0 1 0
    outer loop
      vertex 0 12.9 2
      vertex 15 12.9 0
      vertex 0 12.9 0
    endloop
  endfacet
  facet normal -1 0 0
    outer loop
      vertex 0 0 0
      vertex 0 12.9 2
      vertex 0 12.9 0
    endloop
  endfacet
  facet normal -1 -0 0
    outer loop
      vertex 0 12.9 2
      vertex 0 0 0
      vertex 0 0 2
    endloop
  endfacet
endsolid OpenSCAD_Model
